<svg width="2048" height="1024" viewBox="0 0 2048 1024" fill="none" xmlns="http://www.w3.org/2000/svg">
<g clip-path="url(#clip0_5_31)">
<rect width="2048" height="1024" fill="#B36B6B"/>
<rect width="2048" height="1024" fill="black"/>
<path d="M563 637L688 387H713L588 637H563Z" fill="white"/>
<path d="M822 512L772 387H722L714.5 406H753.5L796 512L753.5 612H616L603.5 637H772L822 512Z" fill="white"/>
<path d="M1340.62 632.739V390.314H1485.98V416.356H1369.98V498.269H1475.09V524.311H1369.98V632.739H1340.62Z" fill="white"/>
<path d="M1144.98 632.739V390.314H1290.34V416.356H1174.34V498.269H1279.45V524.311H1174.34V632.739H1144.98Z" fill="white"/>
<path d="M1064.99 450.92C1063.57 438.926 1057.81 429.614 1047.71 422.985C1037.61 416.356 1025.22 413.042 1010.54 413.042C999.809 413.042 990.419 414.778 982.369 418.25C974.399 421.722 968.165 426.497 963.667 432.573C959.247 438.649 957.038 445.554 957.038 453.288C957.038 459.759 958.577 465.322 961.654 469.978C964.811 474.555 968.836 478.383 973.728 481.46C978.621 484.459 983.75 486.945 989.116 488.918C994.483 490.812 999.415 492.35 1003.91 493.534L1028.53 500.163C1034.85 501.82 1041.87 504.109 1049.6 507.028C1057.42 509.948 1064.87 513.933 1071.98 518.984C1079.16 523.955 1085.08 530.348 1089.73 538.16C1094.39 545.973 1096.72 555.561 1096.72 566.924C1096.72 580.024 1093.28 591.861 1086.42 602.436C1079.63 613.01 1069.69 621.414 1056.59 627.649C1043.57 633.883 1027.74 637 1009.12 637C991.76 637 976.727 634.199 964.022 628.596C951.396 622.993 941.452 615.18 934.192 605.158C927.011 595.136 922.947 583.496 922 570.239H952.303C953.092 579.393 956.17 586.968 961.536 592.966C966.981 598.884 973.847 603.304 982.133 606.224C990.497 609.064 999.494 610.485 1009.12 610.485C1020.33 610.485 1030.39 608.67 1039.31 605.04C1048.22 601.331 1055.29 596.201 1060.49 589.652C1065.7 583.023 1068.31 575.289 1068.31 566.451C1068.31 558.402 1066.06 551.852 1061.56 546.801C1057.06 541.751 1051.14 537.647 1043.8 534.491C1036.46 531.334 1028.53 528.572 1020.01 526.205L990.182 517.682C971.242 512.237 956.249 504.464 945.201 494.363C934.153 484.262 928.629 471.044 928.629 454.708C928.629 441.135 932.298 429.298 939.637 419.197C947.055 409.017 956.998 401.126 969.467 395.523C982.014 389.841 996.021 387 1011.49 387C1027.11 387 1041 389.801 1053.16 395.404C1065.31 400.928 1074.94 408.504 1082.04 418.132C1089.22 427.759 1093.01 438.689 1093.4 450.92H1064.99Z" fill="white"/>
</g>
<defs>
<clipPath id="clip0_5_31">
<rect width="2048" height="1024" fill="white"/>
</clipPath>
</defs>
</svg>
