<svg width="1768" height="182" viewBox="0 0 1768 182" fill="none" xmlns="http://www.w3.org/2000/svg">
<g clip-path="url(#clip0_12_2)">
<path d="M1765.76 48.7328V65.6539H1698.42V48.7328H1765.76ZM1718.04 17.5979H1738.01V141.461C1738.01 147.101 1738.83 151.331 1740.46 154.151C1742.16 156.915 1744.3 158.777 1746.9 159.735C1749.55 160.638 1752.34 161.089 1755.27 161.089C1757.47 161.089 1759.28 160.976 1760.69 160.751C1762.1 160.469 1763.22 160.243 1764.07 160.074L1768.13 178.01C1766.78 178.518 1764.89 179.026 1762.46 179.533C1760.04 180.097 1756.96 180.379 1753.24 180.379C1747.6 180.379 1742.07 179.167 1736.66 176.741C1731.3 174.316 1726.84 170.621 1723.29 165.658C1719.79 160.694 1718.04 154.433 1718.04 146.875V17.5979Z" fill="white"/>
<path d="M1613.24 181.733C1605 181.733 1597.53 180.182 1590.82 177.08C1584.11 173.921 1578.78 169.381 1574.83 163.458C1570.88 157.479 1568.9 150.26 1568.9 141.799C1568.9 134.354 1570.37 128.319 1573.3 123.694C1576.24 119.012 1580.16 115.346 1585.06 112.695C1589.97 110.044 1595.39 108.07 1601.31 106.772C1607.29 105.419 1613.29 104.347 1619.33 103.557C1627.23 102.542 1633.63 101.781 1638.54 101.273C1643.5 100.709 1647.11 99.7783 1649.36 98.481C1651.68 97.1837 1652.83 94.9276 1652.83 91.7125V91.0357C1652.83 82.688 1650.55 76.2015 1645.98 71.5764C1641.47 66.9513 1634.62 64.6387 1625.42 64.6387C1615.89 64.6387 1608.42 66.7257 1603 70.8996C1597.59 75.0735 1593.78 79.5293 1591.58 84.2673L1572.63 77.4988C1576.01 69.6023 1580.52 63.4543 1586.16 59.0548C1591.86 54.5989 1598.07 51.4967 1604.78 49.7482C1611.55 47.9432 1618.2 47.0408 1624.74 47.0408C1628.92 47.0408 1633.71 47.5484 1639.13 48.5637C1644.6 49.5225 1649.87 51.5249 1654.95 54.5707C1660.08 57.6165 1664.34 62.2134 1667.72 68.3614C1671.11 74.5094 1672.8 82.7444 1672.8 93.0663V178.687H1652.83V161.089H1651.82C1650.46 163.909 1648.21 166.927 1645.05 170.142C1641.89 173.357 1637.69 176.093 1632.44 178.349C1627.2 180.605 1620.8 181.733 1613.24 181.733ZM1616.28 163.797C1624.18 163.797 1630.84 162.245 1636.25 159.143C1641.72 156.041 1645.84 152.036 1648.6 147.129C1651.42 142.222 1652.83 137.061 1652.83 131.646V113.372C1651.99 114.387 1650.13 115.318 1647.25 116.164C1644.43 116.953 1641.16 117.658 1637.44 118.279C1633.77 118.843 1630.19 119.35 1626.69 119.802C1623.25 120.196 1620.46 120.535 1618.31 120.817C1613.13 121.494 1608.27 122.594 1603.76 124.117C1599.31 125.583 1595.7 127.811 1592.93 130.8C1590.23 133.733 1588.87 137.738 1588.87 142.814C1588.87 149.752 1591.44 154.998 1596.57 158.551C1601.76 162.048 1608.33 163.797 1616.28 163.797Z" fill="white"/>
<path d="M1543.8 59.5624H1522.82C1521.58 53.5272 1519.4 48.2252 1516.3 43.6565C1513.26 39.0878 1509.53 35.2523 1505.13 32.1501C1500.79 28.9915 1495.97 26.6226 1490.67 25.0433C1485.36 23.4639 1479.84 22.6743 1474.08 22.6743C1463.59 22.6743 1454.09 25.3253 1445.57 30.6272C1437.11 35.9292 1430.37 43.7411 1425.35 54.063C1420.39 64.3849 1417.91 77.0475 1417.91 92.0509C1417.91 107.054 1420.39 119.717 1425.35 130.039C1430.37 140.361 1437.11 148.173 1445.57 153.475C1454.09 158.777 1463.59 161.428 1474.08 161.428C1479.84 161.428 1485.36 160.638 1490.67 159.059C1495.97 157.479 1500.79 155.139 1505.13 152.036C1509.53 148.878 1513.26 145.014 1516.3 140.445C1519.4 135.82 1521.58 130.518 1522.82 124.54H1543.8C1542.22 133.395 1539.34 141.32 1535.17 148.314C1531 155.308 1525.81 161.258 1519.6 166.165C1513.4 171.016 1506.43 174.711 1498.7 177.249C1491.03 179.787 1482.83 181.056 1474.08 181.056C1459.31 181.056 1446.16 177.446 1434.66 170.227C1423.15 163.007 1414.1 152.741 1407.5 139.43C1400.9 126.119 1397.6 110.326 1397.6 92.0509C1397.6 73.7761 1400.9 57.9831 1407.5 44.6718C1414.1 31.3605 1423.15 21.095 1434.66 13.8753C1446.16 6.65562 1459.31 3.04578 1474.08 3.04578C1482.83 3.04578 1491.03 4.31486 1498.7 6.85303C1506.43 9.39121 1513.4 13.1139 1519.6 18.021C1525.81 22.8717 1531 28.7941 1535.17 35.7882C1539.34 42.7258 1542.22 50.6506 1543.8 59.5624Z" fill="white"/>
<path d="M1371.63 48.7328V65.6539H1304.28V48.7328H1371.63ZM1323.91 17.5979H1343.87V141.461C1343.87 147.101 1344.69 151.331 1346.33 154.151C1348.02 156.915 1350.16 158.777 1352.76 159.735C1355.41 160.638 1358.2 161.089 1361.13 161.089C1363.33 161.089 1365.14 160.976 1366.55 160.751C1367.96 160.469 1369.09 160.243 1369.93 160.074L1373.99 178.01C1372.64 178.518 1370.75 179.026 1368.33 179.533C1365.9 180.097 1362.83 180.379 1359.1 180.379C1353.46 180.379 1347.94 179.167 1342.52 176.741C1337.16 174.316 1332.71 170.621 1329.15 165.658C1325.66 160.694 1323.91 154.433 1323.91 146.875V17.5979Z" fill="white"/>
<path d="M1225.75 181.395C1214.01 181.395 1203.72 178.603 1194.86 173.019C1186.07 167.435 1179.18 159.623 1174.22 149.583C1169.31 139.543 1166.86 127.811 1166.86 114.387C1166.86 100.85 1169.31 89.0334 1174.22 78.9371C1179.18 68.8408 1186.07 61.0007 1194.86 55.4167C1203.72 49.8328 1214.01 47.0408 1225.75 47.0408C1237.48 47.0408 1247.74 49.8328 1256.54 55.4167C1265.4 61.0007 1272.28 68.8408 1277.19 78.9371C1282.15 89.0334 1284.63 100.85 1284.63 114.387C1284.63 127.811 1282.15 139.543 1277.19 149.583C1272.28 159.623 1265.4 167.435 1256.54 173.019C1247.74 178.603 1237.48 181.395 1225.75 181.395ZM1225.75 163.458C1234.66 163.458 1241.99 161.174 1247.74 156.605C1253.5 152.036 1257.75 146.029 1260.52 138.584C1263.28 131.139 1264.66 123.073 1264.66 114.387C1264.66 105.701 1263.28 97.6068 1260.52 90.105C1257.75 82.6033 1253.5 76.5399 1247.74 71.9148C1241.99 67.2897 1234.66 64.9772 1225.75 64.9772C1216.83 64.9772 1209.5 67.2897 1203.75 71.9148C1197.99 76.5399 1193.74 82.6033 1190.97 90.105C1188.21 97.6068 1186.83 105.701 1186.83 114.387C1186.83 123.073 1188.21 131.139 1190.97 138.584C1193.74 146.029 1197.99 152.036 1203.75 156.605C1209.5 161.174 1216.83 163.458 1225.75 163.458Z" fill="white"/>
<path d="M1117.05 59.5624C1115.19 53.8656 1112.73 48.761 1109.69 44.2487C1106.7 39.68 1103.12 35.7882 1098.94 32.5732C1094.83 29.3581 1090.14 26.9046 1084.9 25.2125C1079.65 23.5203 1073.9 22.6743 1067.64 22.6743C1057.37 22.6743 1048.04 25.3253 1039.63 30.6272C1031.23 35.9292 1024.55 43.7411 1019.58 54.063C1014.62 64.3849 1012.14 77.0475 1012.14 92.0509C1012.14 107.054 1014.65 119.717 1019.67 130.039C1024.69 140.361 1031.48 148.173 1040.06 153.475C1048.63 158.777 1058.28 161.428 1068.99 161.428C1078.92 161.428 1087.66 159.312 1095.22 155.082C1102.83 150.795 1108.76 144.76 1112.99 136.977C1117.27 129.136 1119.42 119.914 1119.42 109.31L1125.85 110.664H1073.73V92.0509H1139.72V110.664C1139.72 124.934 1136.68 137.343 1130.59 147.891C1124.55 158.438 1116.2 166.617 1105.54 172.426C1094.94 178.179 1082.75 181.056 1068.99 181.056C1053.65 181.056 1040.17 177.446 1028.55 170.227C1016.99 163.007 1007.96 152.741 1001.48 139.43C995.047 126.119 991.832 110.326 991.832 92.0509C991.832 78.3448 993.665 66.0206 997.331 55.0783C1001.05 44.0795 1006.3 34.7165 1013.07 26.9892C1019.84 19.2619 1027.85 13.3395 1037.1 9.22199C1046.35 5.10452 1056.53 3.04578 1067.64 3.04578C1076.78 3.04578 1085.29 4.42767 1093.19 7.19145C1101.14 9.89883 1108.22 13.7625 1114.43 18.7824C1120.69 23.746 1125.9 29.6966 1130.08 36.6342C1134.25 43.5155 1137.13 51.1582 1138.71 59.5624H1117.05Z" fill="white"/>
<path d="M896.989 181.395C886.16 181.395 876.599 178.659 868.308 173.188C860.016 167.66 853.53 159.877 848.848 149.837C844.167 139.74 841.826 127.811 841.826 114.048C841.826 100.399 844.167 88.554 848.848 78.5141C853.53 68.4742 860.045 60.7187 868.392 55.2475C876.74 49.7764 886.385 47.0408 897.328 47.0408C905.788 47.0408 912.472 48.4509 917.379 51.2711C922.343 54.0349 926.122 57.1935 928.716 60.7469C931.367 64.2439 933.426 67.1205 934.892 69.3767H936.584V5.41479H956.551V178.687H937.261V158.72H934.892C933.426 161.089 931.339 164.079 928.632 167.688C925.924 171.242 922.061 174.429 917.041 177.249C912.021 180.013 905.337 181.395 896.989 181.395ZM899.696 163.458C907.706 163.458 914.474 161.371 920.002 157.197C925.529 152.967 929.731 147.129 932.608 139.684C935.485 132.182 936.923 123.524 936.923 113.71C936.923 104.009 935.513 95.5198 932.693 88.2437C929.872 80.9113 925.699 75.2145 920.171 71.1534C914.643 67.0359 907.819 64.9772 899.696 64.9772C891.236 64.9772 884.185 67.1487 878.545 71.4918C872.961 75.7785 868.759 81.6163 865.939 89.0052C863.175 96.3377 861.793 104.573 861.793 113.71C861.793 122.96 863.203 131.364 866.023 138.923C868.9 146.424 873.13 152.403 878.714 156.859C884.355 161.258 891.349 163.458 899.696 163.458Z" fill="white"/>
<path d="M728.518 100.512V178.687H708.551V48.7329H727.841V69.0383H729.533C732.579 62.439 737.204 57.137 743.408 53.1324C749.613 49.0713 757.622 47.0408 767.436 47.0408C776.235 47.0408 783.934 48.8457 790.533 52.4555C797.133 56.009 802.265 61.4237 805.932 68.6998C809.598 75.9195 811.431 85.0569 811.431 96.1121V178.687H791.464V97.4657C791.464 87.2567 788.813 79.3037 783.511 73.607C778.209 67.8538 770.933 64.9772 761.683 64.9772C755.309 64.9772 749.612 66.3591 744.593 69.1228C739.629 71.8866 735.709 75.9195 732.832 81.2215C729.956 86.5234 728.518 92.9534 728.518 100.512Z" fill="white"/>
<path d="M619.185 181.395C607.453 181.395 597.16 178.603 588.304 173.019C579.505 167.435 572.624 159.623 567.661 149.583C562.753 139.543 560.3 127.811 560.3 114.387C560.3 100.85 562.753 89.0334 567.661 78.9371C572.624 68.8408 579.505 61.0007 588.304 55.4167C597.16 49.8328 607.453 47.0408 619.185 47.0408C630.917 47.0408 641.183 49.8328 649.982 55.4167C658.837 61.0007 665.718 68.8408 670.626 78.9371C675.589 89.0334 678.071 100.85 678.071 114.387C678.071 127.811 675.589 139.543 670.626 149.583C665.718 159.623 658.837 167.435 649.982 173.019C641.183 178.603 630.917 181.395 619.185 181.395ZM619.185 163.458C628.097 163.458 635.43 161.174 641.183 156.605C646.936 152.036 651.194 146.029 653.958 138.584C656.722 131.139 658.104 123.073 658.104 114.387C658.104 105.701 656.722 97.6068 653.958 90.105C651.194 82.6033 646.936 76.5399 641.183 71.9148C635.43 67.2897 628.097 64.9772 619.185 64.9772C610.274 64.9772 602.941 67.2897 597.188 71.9148C591.435 76.5399 587.176 82.6033 584.412 90.105C581.649 97.6068 580.267 105.701 580.267 114.387C580.267 123.073 581.649 131.139 584.412 138.584C587.176 146.029 591.435 152.036 597.188 156.605C602.941 161.174 610.274 163.458 619.185 163.458Z" fill="white"/>
<path d="M359.32 178.687V48.7329H378.61V69.0383H380.302C383.01 62.1006 387.381 56.714 393.416 52.8786C399.451 48.9867 406.699 47.0408 415.16 47.0408C423.733 47.0408 430.868 48.9867 436.565 52.8786C442.318 56.714 446.802 62.1006 450.017 69.0383H451.371C454.699 62.3262 459.691 56.996 466.346 53.0478C473.002 49.0431 480.983 47.0408 490.29 47.0408C501.909 47.0408 511.413 50.6788 518.802 57.9549C526.191 65.1746 529.885 76.4271 529.885 91.7126V178.687H509.918V91.7126C509.918 82.1239 507.295 75.2709 502.05 71.1534C496.804 67.0359 490.628 64.9772 483.521 64.9772C474.384 64.9772 467.305 67.7409 462.285 73.2685C457.265 78.7397 454.755 85.6774 454.755 94.0815V178.687H434.45V89.682C434.45 82.2931 432.053 76.3425 427.258 71.8302C422.464 67.2615 416.288 64.9772 408.73 64.9772C403.541 64.9772 398.69 66.3591 394.178 69.1228C389.722 71.8866 386.112 75.7221 383.348 80.6292C380.641 85.4799 379.287 91.0921 379.287 97.4657V178.687H359.32Z" fill="white"/>
<path d="M263.314 181.733C255.079 181.733 247.606 180.182 240.894 177.08C234.182 173.921 228.852 169.381 224.903 163.458C220.955 157.479 218.981 150.26 218.981 141.799C218.981 134.354 220.447 128.319 223.38 123.694C226.313 119.012 230.234 115.346 235.141 112.695C240.048 110.044 245.463 108.07 251.385 106.772C257.364 105.419 263.371 104.347 269.406 103.557C277.302 102.542 283.704 101.781 288.611 101.273C293.575 100.709 297.185 99.7783 299.441 98.481C301.753 97.1837 302.91 94.9276 302.91 91.7125V91.0357C302.91 82.688 300.625 76.2015 296.057 71.5764C291.544 66.9513 284.691 64.6387 275.498 64.6387C265.965 64.6387 258.492 66.7257 253.077 70.8996C247.662 75.0735 243.855 79.5293 241.655 84.2673L222.704 77.4988C226.088 69.6023 230.6 63.4543 236.24 59.0548C241.937 54.5989 248.142 51.4967 254.854 49.7482C261.622 47.9432 268.278 47.0408 274.821 47.0408C278.995 47.0408 283.789 47.5484 289.204 48.5637C294.675 49.5225 299.949 51.5249 305.025 54.5707C310.158 57.6165 314.416 62.2134 317.8 68.3614C321.185 74.5094 322.877 82.7444 322.877 93.0663V178.687H302.91V161.089H301.894C300.541 163.909 298.285 166.927 295.126 170.142C291.967 173.357 287.765 176.093 282.52 178.349C277.274 180.605 270.872 181.733 263.314 181.733ZM266.36 163.797C274.257 163.797 280.912 162.245 286.327 159.143C291.798 156.041 295.916 152.036 298.679 147.129C301.5 142.222 302.91 137.061 302.91 131.646V113.372C302.064 114.387 300.202 115.318 297.326 116.164C294.506 116.953 291.234 117.658 287.511 118.279C283.845 118.843 280.264 119.35 276.767 119.802C273.326 120.196 270.534 120.535 268.391 120.817C263.201 121.494 258.351 122.594 253.838 124.117C249.383 125.583 245.773 127.811 243.009 130.8C240.302 133.733 238.948 137.738 238.948 142.814C238.948 149.752 241.514 154.998 246.647 158.551C251.836 162.048 258.407 163.797 266.36 163.797Z" fill="white"/>
<path d="M168.535 178.687V48.7329H188.502V178.687H168.535ZM178.687 27.0738C174.796 27.0738 171.439 25.7483 168.619 23.0973C165.856 20.4464 164.474 17.2596 164.474 13.5369C164.474 9.81426 165.856 6.62744 168.619 3.97646C171.439 1.32549 174.796 0 178.687 0C182.579 0 185.907 1.32549 188.671 3.97646C191.491 6.62744 192.901 9.81426 192.901 13.5369C192.901 17.2596 191.491 20.4464 188.671 23.0973C185.907 25.7483 182.579 27.0738 178.687 27.0738Z" fill="white"/>
<path d="M53.4707 178.687H0V5.41479H55.8397C72.648 5.41479 87.031 8.88363 98.9886 15.8213C110.946 22.7026 120.112 32.6014 126.485 45.5179C132.859 58.3779 136.046 73.7762 136.046 91.7126C136.046 109.762 132.831 125.301 126.401 138.33C119.971 151.303 110.608 161.287 98.3117 168.281C86.0157 175.218 71.0687 178.687 53.4707 178.687ZM20.9822 160.074H52.1171C66.4436 160.074 78.3166 157.31 87.736 151.783C97.1555 146.255 104.178 138.387 108.803 128.178C113.428 117.969 115.74 105.814 115.74 91.7126C115.74 77.7244 113.456 65.6822 108.887 55.586C104.319 45.4333 97.4939 37.6496 88.4129 32.2348C79.3319 26.7636 68.0229 24.028 54.486 24.028H20.9822V160.074Z" fill="white"/>
</g>
<defs>
<clipPath id="clip0_12_2">
<rect width="1768" height="182" fill="white"/>
</clipPath>
</defs>
</svg>
