<svg width="2048" height="1024" viewBox="0 0 2048 1024" fill="none" xmlns="http://www.w3.org/2000/svg">
<g clip-path="url(#clip0_3_2)">
<rect width="2048" height="1024" fill="#B36B6B"/>
<rect width="2048" height="1024" fill="black"/>
<path d="M461 562L511 462H521L471 562H461Z" fill="white"/>
<path d="M564.6 512L544.6 462H524.6L521.6 469.6H537.2L554.2 512L537.2 552H482.2L477.2 562H544.6L564.6 512Z" fill="white"/>
<path d="M1586.62 488.816V498.127H1549.57V488.816H1586.62ZM1560.37 471.683H1571.35V539.84C1571.35 542.943 1571.8 545.271 1572.7 546.823C1573.64 548.344 1574.82 549.368 1576.24 549.896C1577.7 550.392 1579.24 550.641 1580.85 550.641C1582.06 550.641 1583.06 550.578 1583.83 550.454C1584.61 550.299 1585.23 550.175 1585.69 550.082L1587.93 559.952C1587.18 560.231 1586.14 560.51 1584.81 560.79C1583.47 561.1 1581.78 561.255 1579.73 561.255C1576.63 561.255 1573.59 560.588 1570.61 559.253C1567.66 557.919 1565.21 555.886 1563.25 553.155C1561.33 550.423 1560.37 546.978 1560.37 542.819V471.683Z" fill="white"/>
<path d="M1502.7 562C1498.17 562 1494.05 561.146 1490.36 559.439C1486.67 557.701 1483.73 555.203 1481.56 551.944C1479.39 548.654 1478.3 544.682 1478.3 540.026C1478.3 535.929 1479.11 532.608 1480.72 530.063C1482.34 527.487 1484.49 525.47 1487.19 524.011C1489.9 522.552 1492.87 521.466 1496.13 520.752C1499.42 520.007 1502.73 519.418 1506.05 518.983C1510.39 518.425 1513.92 518.006 1516.62 517.726C1519.35 517.416 1521.34 516.904 1522.58 516.19C1523.85 515.476 1524.49 514.235 1524.49 512.466V512.093C1524.49 507.5 1523.23 503.93 1520.71 501.385C1518.23 498.84 1514.46 497.568 1509.4 497.568C1504.16 497.568 1500.04 498.716 1497.06 501.013C1494.09 503.31 1491.99 505.762 1490.78 508.369L1480.35 504.644C1482.21 500.299 1484.7 496.916 1487.8 494.495C1490.93 492.043 1494.35 490.336 1498.04 489.374C1501.77 488.381 1505.43 487.885 1509.03 487.885C1511.33 487.885 1513.96 488.164 1516.94 488.723C1519.95 489.25 1522.86 490.352 1525.65 492.028C1528.47 493.704 1530.82 496.233 1532.68 499.616C1534.54 502.999 1535.47 507.531 1535.47 513.21V560.324H1524.49V550.641H1523.93C1523.18 552.192 1521.94 553.853 1520.2 555.622C1518.46 557.391 1516.15 558.896 1513.27 560.138C1510.38 561.379 1506.86 562 1502.7 562ZM1504.37 552.13C1508.72 552.13 1512.38 551.277 1515.36 549.57C1518.37 547.863 1520.64 545.659 1522.16 542.959C1523.71 540.259 1524.49 537.419 1524.49 534.439V524.384C1524.02 524.942 1523 525.454 1521.41 525.92C1519.86 526.354 1518.06 526.742 1516.01 527.084C1514 527.394 1512.02 527.673 1510.1 527.922C1508.21 528.139 1506.67 528.325 1505.49 528.48C1502.64 528.853 1499.97 529.458 1497.48 530.296C1495.03 531.103 1493.05 532.329 1491.52 533.974C1490.03 535.588 1489.29 537.791 1489.29 540.585C1489.29 544.402 1490.7 547.289 1493.53 549.244C1496.38 551.168 1500 552.13 1504.37 552.13Z" fill="white"/>
<path d="M1464.49 494.775H1452.94C1452.26 491.454 1451.06 488.536 1449.36 486.022C1447.68 483.508 1445.63 481.398 1443.21 479.691C1440.82 477.953 1438.17 476.649 1435.25 475.78C1432.33 474.911 1429.29 474.477 1426.13 474.477C1420.35 474.477 1415.12 475.935 1410.44 478.853C1405.78 481.77 1402.07 486.069 1399.31 491.749C1396.58 497.428 1395.21 504.396 1395.21 512.652C1395.21 520.907 1396.58 527.875 1399.31 533.555C1402.07 539.235 1405.78 543.533 1410.44 546.451C1415.12 549.368 1420.35 550.827 1426.13 550.827C1429.29 550.827 1432.33 550.392 1435.25 549.523C1438.17 548.654 1440.82 547.366 1443.21 545.659C1445.63 543.921 1447.68 541.795 1449.36 539.281C1451.06 536.736 1452.26 533.819 1452.94 530.529H1464.49C1463.62 535.402 1462.04 539.762 1459.74 543.611C1457.44 547.459 1454.59 550.734 1451.17 553.434C1447.76 556.103 1443.93 558.136 1439.67 559.533C1435.45 560.929 1430.94 561.628 1426.13 561.628C1418 561.628 1410.76 559.641 1404.43 555.669C1398.1 551.696 1393.12 546.047 1389.49 538.723C1385.86 531.398 1384.04 522.708 1384.04 512.652C1384.04 502.596 1385.86 493.906 1389.49 486.581C1393.12 479.256 1398.1 473.608 1404.43 469.635C1410.76 465.662 1418 463.676 1426.13 463.676C1430.94 463.676 1435.45 464.374 1439.67 465.771C1443.93 467.168 1447.76 469.216 1451.17 471.916C1454.59 474.585 1457.44 477.844 1459.74 481.693C1462.04 485.51 1463.62 489.871 1464.49 494.775Z" fill="white"/>
<path d="M1369.75 488.816V498.127H1332.69V488.816H1369.75ZM1343.49 471.683H1354.48V539.84C1354.48 542.943 1354.93 545.271 1355.83 546.823C1356.76 548.344 1357.94 549.368 1359.37 549.896C1360.83 550.392 1362.36 550.641 1363.98 550.641C1365.19 550.641 1366.18 550.578 1366.96 550.454C1367.73 550.299 1368.35 550.175 1368.82 550.082L1371.05 559.952C1370.31 560.231 1369.27 560.51 1367.93 560.79C1366.6 561.1 1364.91 561.255 1362.86 561.255C1359.75 561.255 1356.71 560.588 1353.73 559.253C1350.79 557.919 1348.33 555.886 1346.38 553.155C1344.45 550.423 1343.49 546.978 1343.49 542.819V471.683Z" fill="white"/>
<path d="M1289.48 561.814C1283.02 561.814 1277.36 560.277 1272.48 557.205C1267.64 554.132 1263.86 549.834 1261.12 544.309C1258.42 538.785 1257.07 532.329 1257.07 524.942C1257.07 517.493 1258.42 510.991 1261.12 505.436C1263.86 499.88 1267.64 495.566 1272.48 492.493C1277.36 489.421 1283.02 487.885 1289.48 487.885C1295.93 487.885 1301.58 489.421 1306.42 492.493C1311.29 495.566 1315.08 499.88 1317.78 505.436C1320.51 510.991 1321.88 517.493 1321.88 524.942C1321.88 532.329 1320.51 538.785 1317.78 544.309C1315.08 549.834 1311.29 554.132 1306.42 557.205C1301.58 560.277 1295.93 561.814 1289.48 561.814ZM1289.48 551.944C1294.38 551.944 1298.41 550.687 1301.58 548.173C1304.75 545.659 1307.09 542.354 1308.61 538.257C1310.13 534.16 1310.89 529.722 1310.89 524.942C1310.89 520.163 1310.13 515.709 1308.61 511.581C1307.09 507.453 1304.75 504.117 1301.58 501.572C1298.41 499.027 1294.38 497.754 1289.48 497.754C1284.57 497.754 1280.54 499.027 1277.37 501.572C1274.21 504.117 1271.86 507.453 1270.34 511.581C1268.82 515.709 1268.06 520.163 1268.06 524.942C1268.06 529.722 1268.82 534.16 1270.34 538.257C1271.86 542.354 1274.21 545.659 1277.37 548.173C1280.54 550.687 1284.57 551.944 1289.48 551.944Z" fill="white"/>
<path d="M1229.66 494.775C1228.64 491.64 1227.29 488.831 1225.61 486.348C1223.97 483.834 1222 481.693 1219.7 479.924C1217.44 478.155 1214.86 476.804 1211.97 475.873C1209.09 474.942 1205.92 474.477 1202.48 474.477C1196.83 474.477 1191.69 475.935 1187.07 478.853C1182.44 481.77 1178.76 486.069 1176.03 491.749C1173.3 497.428 1171.94 504.396 1171.94 512.652C1171.94 520.907 1173.32 527.875 1176.08 533.555C1178.84 539.235 1182.58 543.533 1187.3 546.451C1192.02 549.368 1197.32 550.827 1203.22 550.827C1208.68 550.827 1213.49 549.663 1217.65 547.335C1221.84 544.976 1225.1 541.655 1227.43 537.372C1229.79 533.058 1230.97 527.984 1230.97 522.149L1234.51 522.894H1205.83V512.652H1242.14V522.894C1242.14 530.746 1240.47 537.574 1237.11 543.378C1233.79 549.182 1229.2 553.682 1223.33 556.879C1217.5 560.045 1210.79 561.628 1203.22 561.628C1194.78 561.628 1187.36 559.641 1180.97 555.669C1174.61 551.696 1169.64 546.047 1166.07 538.723C1162.53 531.398 1160.76 522.708 1160.76 512.652C1160.76 505.11 1161.77 498.328 1163.79 492.307C1165.84 486.255 1168.72 481.103 1172.45 476.851C1176.17 472.599 1180.58 469.34 1185.67 467.074C1190.76 464.809 1196.36 463.676 1202.48 463.676C1207.5 463.676 1212.19 464.436 1216.54 465.957C1220.91 467.447 1224.81 469.573 1228.22 472.335C1231.67 475.066 1234.54 478.341 1236.83 482.158C1239.13 485.945 1240.71 490.15 1241.58 494.775H1229.66Z" fill="white"/>
<path d="M1108.58 561.814C1102.62 561.814 1097.36 560.309 1092.79 557.298C1088.23 554.256 1084.66 549.973 1082.09 544.449C1079.51 538.893 1078.22 532.329 1078.22 524.756C1078.22 517.245 1079.51 510.728 1082.09 505.203C1084.66 499.678 1088.25 495.411 1092.84 492.4C1097.43 489.39 1102.74 487.885 1108.76 487.885C1113.42 487.885 1117.09 488.66 1119.79 490.212C1122.53 491.733 1124.61 493.471 1126.03 495.426C1127.49 497.351 1128.62 498.934 1129.43 500.175H1130.36V464.98H1141.35V560.324H1130.74V549.337H1129.43C1128.62 550.641 1127.48 552.286 1125.99 554.272C1124.5 556.227 1122.37 557.981 1119.61 559.533C1116.85 561.053 1113.17 561.814 1108.58 561.814ZM1110.07 551.944C1114.47 551.944 1118.2 550.796 1121.24 548.499C1124.28 546.171 1126.59 542.959 1128.17 538.862C1129.76 534.734 1130.55 529.97 1130.55 524.57C1130.55 519.232 1129.77 514.561 1128.22 510.557C1126.67 506.522 1124.37 503.387 1121.33 501.153C1118.29 498.887 1114.53 497.754 1110.07 497.754C1105.41 497.754 1101.53 498.949 1098.43 501.339C1095.35 503.698 1093.04 506.91 1091.49 510.976C1089.97 515.011 1089.21 519.542 1089.21 524.57C1089.21 529.66 1089.98 534.284 1091.54 538.443C1093.12 542.571 1095.45 545.861 1098.52 548.313C1101.62 550.734 1105.47 551.944 1110.07 551.944Z" fill="white"/>
<path d="M1015.87 517.307V560.324H1004.89V488.816H1015.5V499.989H1016.43C1018.11 496.358 1020.65 493.44 1024.07 491.237C1027.48 489.002 1031.89 487.885 1037.29 487.885C1042.13 487.885 1046.37 488.878 1050 490.864C1053.63 492.819 1056.45 495.799 1058.47 499.803C1060.49 503.775 1061.5 508.803 1061.5 514.886V560.324H1050.51V515.631C1050.51 510.014 1049.05 505.638 1046.13 502.503C1043.22 499.337 1039.21 497.754 1034.12 497.754C1030.62 497.754 1027.48 498.515 1024.72 500.035C1021.99 501.556 1019.83 503.775 1018.25 506.693C1016.66 509.61 1015.87 513.148 1015.87 517.307Z" fill="white"/>
<path d="M955.712 561.814C949.257 561.814 943.593 560.277 938.72 557.205C933.878 554.132 930.092 549.834 927.36 544.309C924.66 538.785 923.31 532.329 923.31 524.942C923.31 517.493 924.66 510.991 927.36 505.436C930.092 499.88 933.878 495.566 938.72 492.493C943.593 489.421 949.257 487.885 955.712 487.885C962.168 487.885 967.817 489.421 972.658 492.493C977.531 495.566 981.318 499.88 984.018 505.436C986.749 510.991 988.115 517.493 988.115 524.942C988.115 532.329 986.749 538.785 984.018 544.309C981.318 549.834 977.531 554.132 972.658 557.205C967.817 560.277 962.168 561.814 955.712 561.814ZM955.712 551.944C960.616 551.944 964.651 550.687 967.817 548.173C970.982 545.659 973.326 542.354 974.846 538.257C976.367 534.16 977.128 529.722 977.128 524.942C977.128 520.163 976.367 515.709 974.846 511.581C973.326 507.453 970.982 504.117 967.817 501.572C964.651 499.027 960.616 497.754 955.712 497.754C950.809 497.754 946.774 499.027 943.608 501.572C940.442 504.117 938.099 507.453 936.578 511.581C935.057 515.709 934.297 520.163 934.297 524.942C934.297 529.722 935.057 534.16 936.578 538.257C938.099 542.354 940.442 545.659 943.608 548.173C946.774 550.687 950.809 551.944 955.712 551.944Z" fill="white"/>
<path d="M812.719 560.324V488.816H823.333V499.989H824.264C825.754 496.171 828.159 493.207 831.48 491.097C834.801 488.955 838.79 487.885 843.445 487.885C848.163 487.885 852.089 488.955 855.223 491.097C858.389 493.207 860.857 496.171 862.626 499.989H863.371C865.202 496.295 867.948 493.363 871.611 491.19C875.273 488.986 879.665 487.885 884.786 487.885C891.179 487.885 896.409 489.886 900.475 493.89C904.541 497.863 906.574 504.055 906.574 512.466V560.324H895.587V512.466C895.587 507.189 894.143 503.418 891.257 501.153C888.371 498.887 884.972 497.754 881.061 497.754C876.033 497.754 872.138 499.275 869.376 502.317C866.614 505.327 865.233 509.145 865.233 513.769V560.324H854.06V511.348C854.06 507.282 852.74 504.008 850.102 501.525C847.464 499.011 844.066 497.754 839.907 497.754C837.051 497.754 834.382 498.515 831.899 500.035C829.447 501.556 827.461 503.667 825.94 506.367C824.451 509.036 823.706 512.124 823.706 515.631V560.324H812.719Z" fill="white"/>
<path d="M759.891 562C755.359 562 751.247 561.146 747.553 559.439C743.86 557.701 740.927 555.203 738.755 551.944C736.582 548.654 735.496 544.682 735.496 540.026C735.496 535.929 736.303 532.608 737.917 530.063C739.53 527.487 741.688 525.47 744.388 524.011C747.088 522.552 750.067 521.466 753.326 520.752C756.616 520.007 759.922 519.418 763.242 518.983C767.588 518.425 771.11 518.006 773.81 517.726C776.542 517.416 778.528 516.904 779.769 516.19C781.042 515.476 781.678 514.235 781.678 512.466V512.093C781.678 507.5 780.421 503.93 777.907 501.385C775.424 498.84 771.653 497.568 766.594 497.568C761.349 497.568 757.237 498.716 754.257 501.013C751.278 503.31 749.183 505.762 747.972 508.369L737.544 504.644C739.406 500.299 741.889 496.916 744.993 494.495C748.128 492.043 751.542 490.336 755.235 489.374C758.959 488.381 762.622 487.885 766.222 487.885C768.519 487.885 771.157 488.164 774.136 488.723C777.147 489.25 780.049 490.352 782.842 492.028C785.666 493.704 788.01 496.233 789.872 499.616C791.734 502.999 792.665 507.531 792.665 513.21V560.324H781.678V550.641H781.12C780.375 552.192 779.133 553.853 777.395 555.622C775.657 557.391 773.345 558.896 770.458 560.138C767.572 561.379 764.049 562 759.891 562ZM761.566 552.13C765.912 552.13 769.574 551.277 772.553 549.57C775.564 547.863 777.83 545.659 779.35 542.959C780.902 540.259 781.678 537.419 781.678 534.439V524.384C781.213 524.942 780.188 525.454 778.606 525.92C777.054 526.354 775.254 526.742 773.205 527.084C771.188 527.394 769.217 527.673 767.293 527.922C765.4 528.139 763.863 528.325 762.684 528.48C759.828 528.853 757.159 529.458 754.676 530.296C752.224 531.103 750.238 532.329 748.717 533.974C747.228 535.588 746.483 537.791 746.483 540.585C746.483 544.402 747.895 547.289 750.719 549.244C753.575 551.168 757.19 552.13 761.566 552.13Z" fill="white"/>
<path d="M707.737 560.324V488.816H718.724V560.324H707.737ZM713.324 476.898C711.183 476.898 709.336 476.168 707.784 474.709C706.263 473.251 705.503 471.497 705.503 469.449C705.503 467.4 706.263 465.647 707.784 464.188C709.336 462.729 711.183 462 713.324 462C715.466 462 717.297 462.729 718.818 464.188C720.369 465.647 721.145 467.4 721.145 469.449C721.145 471.497 720.369 473.251 718.818 474.709C717.297 476.168 715.466 476.898 713.324 476.898Z" fill="white"/>
<path d="M644.423 560.324H615V464.98H645.726C654.975 464.98 662.89 466.888 669.469 470.706C676.049 474.492 681.092 479.939 684.6 487.047C688.107 494.123 689.86 502.596 689.86 512.466C689.86 522.397 688.091 530.948 684.553 538.117C681.015 545.256 675.863 550.749 669.097 554.598C662.331 558.415 654.106 560.324 644.423 560.324ZM626.546 550.082H643.678C651.561 550.082 658.094 548.561 663.277 545.52C668.461 542.478 672.325 538.148 674.87 532.531C677.415 526.913 678.687 520.225 678.687 512.466C678.687 504.768 677.43 498.142 674.916 492.587C672.402 487 668.647 482.717 663.65 479.737C658.653 476.727 652.43 475.222 644.981 475.222H626.546V550.082Z" fill="white"/>
</g>
<defs>
<clipPath id="clip0_3_2">
<rect width="2048" height="1024" fill="white"/>
</clipPath>
</defs>
</svg>
