<svg width="2048" height="1024" viewBox="0 0 2048 1024" fill="none" xmlns="http://www.w3.org/2000/svg">
<g clip-path="url(#clip0_5_2)">
<rect width="2048" height="1024" fill="#B36B6B"/>
<rect width="2048" height="1024" fill="black"/>
<path d="M507 637L632 387H657L532 637H507Z" fill="white"/>
<path d="M766 512L716 387H666L658.5 406H697.5L740 512L697.5 612H560L547.5 637H716L766 512Z" fill="white"/>
<path d="M1456.45 637C1444.77 637 1434.18 634.801 1424.66 630.402C1415.14 625.924 1407.59 619.486 1401.99 611.088C1396.39 602.611 1393.59 592.374 1393.59 580.378C1393.59 569.821 1395.67 561.264 1399.83 554.706C1403.99 548.068 1409.55 542.87 1416.5 539.111C1423.46 535.352 1431.14 532.553 1439.54 530.714C1448.01 528.795 1456.53 527.275 1465.09 526.155C1476.28 524.716 1485.36 523.636 1492.32 522.916C1499.36 522.117 1504.48 520.797 1507.67 518.958C1510.95 517.118 1512.59 513.919 1512.59 509.361V508.401C1512.59 496.565 1509.35 487.368 1502.88 480.81C1496.48 474.252 1486.76 470.973 1473.73 470.973C1460.21 470.973 1449.61 473.932 1441.94 479.85C1434.26 485.768 1428.86 492.086 1425.74 498.804L1398.87 489.207C1403.67 478.011 1410.07 469.293 1418.06 463.055C1426.14 456.737 1434.94 452.339 1444.46 449.86C1454.05 447.3 1463.49 446.021 1472.77 446.021C1478.68 446.021 1485.48 446.741 1493.16 448.18C1500.92 449.54 1508.39 452.379 1515.59 456.697C1522.87 461.016 1528.91 467.534 1533.71 476.251C1538.51 484.968 1540.9 496.645 1540.9 511.28V632.681H1512.59V607.729H1511.15C1509.23 611.728 1506.04 616.007 1501.56 620.565C1497.08 625.124 1491.12 629.003 1483.68 632.202C1476.24 635.401 1467.17 637 1456.45 637ZM1460.77 611.568C1471.97 611.568 1481.4 609.369 1489.08 604.97C1496.84 600.572 1502.68 594.893 1506.6 587.936C1510.59 580.978 1512.59 573.66 1512.59 565.983V540.071C1511.39 541.51 1508.75 542.83 1504.68 544.03C1500.68 545.149 1496.04 546.149 1490.76 547.029C1485.56 547.828 1480.48 548.548 1475.53 549.188C1470.65 549.748 1466.69 550.228 1463.65 550.628C1456.29 551.587 1449.41 553.147 1443.02 555.306C1436.7 557.385 1431.58 560.544 1427.66 564.783C1423.82 568.942 1421.9 574.62 1421.9 581.818C1421.9 591.654 1425.54 599.092 1432.82 604.13C1440.18 609.089 1449.49 611.568 1460.77 611.568Z" fill="white"/>
<path d="M1359.64 448.42V472.413H1264.15V448.42H1359.64ZM1291.98 404.274H1320.29V579.898C1320.29 587.896 1321.45 593.894 1323.77 597.893C1326.17 601.811 1329.21 604.451 1332.89 605.81C1336.65 607.09 1340.61 607.73 1344.77 607.73C1347.89 607.73 1350.44 607.57 1352.44 607.25C1354.44 606.85 1356.04 606.53 1357.24 606.29L1363 631.722C1361.08 632.442 1358.4 633.161 1354.96 633.881C1351.52 634.681 1347.17 635.081 1341.89 635.081C1333.89 635.081 1326.05 633.361 1318.38 629.922C1310.78 626.484 1304.46 621.245 1299.42 614.207C1294.46 607.17 1291.98 598.293 1291.98 587.576V404.274Z" fill="white"/>
<path d="M1160.15 636.52C1142.39 636.52 1127.08 632.601 1114.2 624.764C1101.41 616.846 1091.53 605.81 1084.57 591.654C1077.69 577.419 1074.25 560.864 1074.25 541.99C1074.25 523.116 1077.69 506.482 1084.57 492.086C1091.53 477.611 1101.21 466.334 1113.6 458.257C1126.08 450.1 1140.63 446.021 1157.27 446.021C1166.86 446.021 1176.34 447.62 1185.7 450.819C1195.06 454.018 1203.57 459.217 1211.25 466.414C1218.93 473.532 1225.05 482.969 1229.6 494.725C1234.16 506.482 1236.44 520.957 1236.44 538.152V550.148H1094.41V525.676H1207.65C1207.65 515.279 1205.57 506.002 1201.41 497.844C1197.33 489.687 1191.5 483.249 1183.9 478.531C1176.38 473.812 1167.5 471.453 1157.27 471.453C1145.99 471.453 1136.23 474.252 1128 479.85C1119.84 485.368 1113.56 492.566 1109.16 501.443C1104.76 510.32 1102.56 519.837 1102.56 529.994V546.309C1102.56 560.224 1104.96 572.021 1109.76 581.698C1114.64 591.295 1121.4 598.612 1130.04 603.651C1138.67 608.609 1148.71 611.088 1160.15 611.088C1167.58 611.088 1174.3 610.049 1180.3 607.969C1186.38 605.81 1191.62 602.611 1196.02 598.372C1200.41 594.054 1203.81 588.695 1206.21 582.297L1233.56 589.975C1230.68 599.252 1225.85 607.409 1219.05 614.447C1212.25 621.405 1203.85 626.843 1193.86 630.762C1183.86 634.601 1172.62 636.52 1160.15 636.52Z" fill="white"/>
<path d="M867.44 632.682V611.089L999.877 413.392H866V387H1035.39V408.593L902.948 606.29H1036.83V632.682H867.44Z" fill="white"/>
</g>
<defs>
<clipPath id="clip0_5_2">
<rect width="2048" height="1024" fill="white"/>
</clipPath>
</defs>
</svg>
