<svg width="2048" height="182" viewBox="0 0 2048 182" fill="none" xmlns="http://www.w3.org/2000/svg">
<g clip-path="url(#clip0_8_8)">
<path d="M0 181.733L90.8664 0H109.04L18.1733 181.733H0Z" fill="white"/>
<path d="M188.276 90.8665L151.929 0H115.583L110.131 13.8117H138.481L169.376 90.8665L138.481 163.56H38.5281L29.4414 181.733H151.929L188.276 90.8665Z" fill="white"/>
<path d="M2045.63 48.7328V65.654H1978.29V48.7328H2045.63ZM1997.91 17.598H2017.88V141.461C2017.88 147.101 2018.7 151.331 2020.33 154.152C2022.03 156.915 2024.17 158.777 2026.76 159.735C2029.42 160.638 2032.21 161.089 2035.14 161.089C2037.34 161.089 2039.14 160.976 2040.55 160.751C2041.96 160.469 2043.09 160.243 2043.94 160.074L2048 178.01C2046.65 178.518 2044.76 179.026 2042.33 179.533C2039.91 180.097 2036.83 180.379 2033.11 180.379C2027.47 180.379 2021.94 179.167 2016.53 176.741C2011.17 174.316 2006.71 170.621 2003.16 165.658C1999.66 160.694 1997.91 154.434 1997.91 146.875V17.598Z" fill="white"/>
<path d="M1893.11 181.733C1884.87 181.733 1877.4 180.182 1870.69 177.08C1863.98 173.921 1858.65 169.381 1854.7 163.458C1850.75 157.479 1848.77 150.26 1848.77 141.799C1848.77 134.354 1850.24 128.319 1853.17 123.694C1856.11 119.012 1860.03 115.346 1864.93 112.695C1869.84 110.044 1875.26 108.07 1881.18 106.772C1887.16 105.419 1893.16 104.347 1899.2 103.557C1907.1 102.542 1913.5 101.781 1918.4 101.273C1923.37 100.709 1926.98 99.7783 1929.23 98.481C1931.55 97.1837 1932.7 94.9276 1932.7 91.7125V91.0357C1932.7 82.688 1930.42 76.2015 1925.85 71.5764C1921.34 66.9513 1914.48 64.6387 1905.29 64.6387C1895.76 64.6387 1888.29 66.7257 1882.87 70.8996C1877.46 75.0735 1873.65 79.5293 1871.45 84.2673L1852.5 77.4988C1855.88 69.6023 1860.39 63.4543 1866.03 59.0548C1871.73 54.5989 1877.94 51.4967 1884.65 49.7482C1891.42 47.9432 1898.07 47.0408 1904.61 47.0408C1908.79 47.0408 1913.58 47.5484 1919 48.5637C1924.47 49.5225 1929.74 51.5249 1934.82 54.5707C1939.95 57.6165 1944.21 62.2134 1947.59 68.3614C1950.98 74.5094 1952.67 82.7444 1952.67 93.0663V178.687H1932.7V161.089H1931.69C1930.33 163.909 1928.08 166.927 1924.92 170.142C1921.76 173.357 1917.56 176.093 1912.31 178.349C1907.07 180.605 1900.67 181.733 1893.11 181.733ZM1896.15 163.797C1904.05 163.797 1910.71 162.245 1916.12 159.143C1921.59 156.041 1925.71 152.036 1928.47 147.129C1931.29 142.222 1932.7 137.061 1932.7 131.646V113.372C1931.86 114.387 1930 115.318 1927.12 116.164C1924.3 116.953 1921.03 117.658 1917.3 118.279C1913.64 118.843 1910.06 119.35 1906.56 119.802C1903.12 120.196 1900.33 120.535 1898.18 120.817C1892.99 121.494 1888.14 122.594 1883.63 124.117C1879.18 125.583 1875.57 127.811 1872.8 130.8C1870.09 133.733 1868.74 137.738 1868.74 142.814C1868.74 149.752 1871.31 154.998 1876.44 158.551C1881.63 162.048 1888.2 163.797 1896.15 163.797Z" fill="white"/>
<path d="M1823.67 59.5624H1802.69C1801.45 53.5272 1799.27 48.2252 1796.17 43.6565C1793.13 39.0878 1789.4 35.2523 1785 32.1501C1780.66 28.9915 1775.84 26.6226 1770.54 25.0433C1765.23 23.4639 1759.71 22.6743 1753.95 22.6743C1743.46 22.6743 1733.96 25.3253 1725.44 30.6272C1716.98 35.9292 1710.24 43.7411 1705.22 54.063C1700.26 64.3849 1697.78 77.0475 1697.78 92.0509C1697.78 107.054 1700.26 119.717 1705.22 130.039C1710.24 140.361 1716.98 148.173 1725.44 153.475C1733.96 158.777 1743.46 161.428 1753.95 161.428C1759.71 161.428 1765.23 160.638 1770.54 159.059C1775.84 157.479 1780.66 155.139 1785 152.036C1789.4 148.878 1793.13 145.014 1796.17 140.445C1799.27 135.82 1801.45 130.518 1802.69 124.54H1823.67C1822.09 133.395 1819.21 141.32 1815.04 148.314C1810.86 155.308 1805.68 161.258 1799.47 166.165C1793.27 171.016 1786.3 174.711 1778.57 177.249C1770.9 179.787 1762.7 181.056 1753.95 181.056C1739.18 181.056 1726.03 177.446 1714.53 170.227C1703.02 163.007 1693.97 152.741 1687.37 139.43C1680.77 126.119 1677.47 110.326 1677.47 92.0509C1677.47 73.7761 1680.77 57.9831 1687.37 44.6718C1693.97 31.3605 1703.02 21.095 1714.53 13.8753C1726.03 6.65562 1739.18 3.04578 1753.95 3.04578C1762.7 3.04578 1770.9 4.31486 1778.57 6.85303C1786.3 9.39121 1793.27 13.1139 1799.47 18.021C1805.68 22.8717 1810.86 28.7941 1815.04 35.7882C1819.21 42.7258 1822.09 50.6506 1823.67 59.5624Z" fill="white"/>
<path d="M1651.49 48.7328V65.654H1584.15V48.7328H1651.49ZM1603.78 17.598H1623.74V141.461C1623.74 147.101 1624.56 151.331 1626.2 154.152C1627.89 156.915 1630.03 158.777 1632.63 159.735C1635.28 160.638 1638.07 161.089 1641 161.089C1643.2 161.089 1645.01 160.976 1646.42 160.751C1647.83 160.469 1648.96 160.243 1649.8 160.074L1653.86 178.01C1652.51 178.518 1650.62 179.026 1648.19 179.533C1645.77 180.097 1642.7 180.379 1638.97 180.379C1633.33 180.379 1627.8 179.167 1622.39 176.741C1617.03 174.316 1612.58 170.621 1609.02 165.658C1605.53 160.694 1603.78 154.434 1603.78 146.875V17.598Z" fill="white"/>
<path d="M1505.61 181.395C1493.88 181.395 1483.59 178.603 1474.73 173.019C1465.93 167.435 1459.05 159.623 1454.09 149.583C1449.18 139.543 1446.73 127.811 1446.73 114.387C1446.73 100.85 1449.18 89.0334 1454.09 78.9371C1459.05 68.8408 1465.93 61.0007 1474.73 55.4167C1483.59 49.8328 1493.88 47.0408 1505.61 47.0408C1517.35 47.0408 1527.61 49.8328 1536.41 55.4167C1545.27 61.0007 1552.15 68.8408 1557.06 78.9371C1562.02 89.0334 1564.5 100.85 1564.5 114.387C1564.5 127.811 1562.02 139.543 1557.06 149.583C1552.15 159.623 1545.27 167.435 1536.41 173.019C1527.61 178.603 1517.35 181.395 1505.61 181.395ZM1505.61 163.458C1514.53 163.458 1521.86 161.174 1527.61 156.605C1533.37 152.036 1537.62 146.029 1540.39 138.584C1543.15 131.139 1544.53 123.073 1544.53 114.387C1544.53 105.701 1543.15 97.6068 1540.39 90.105C1537.62 82.6033 1533.37 76.5399 1527.61 71.9148C1521.86 67.2897 1514.53 64.9772 1505.61 64.9772C1496.7 64.9772 1489.37 67.2897 1483.62 71.9148C1477.86 76.5399 1473.61 82.6033 1470.84 90.105C1468.08 97.6068 1466.7 105.701 1466.7 114.387C1466.7 123.073 1468.08 131.139 1470.84 138.584C1473.61 146.029 1477.86 152.036 1483.62 156.605C1489.37 161.174 1496.7 163.458 1505.61 163.458Z" fill="white"/>
<path d="M1396.92 59.5624C1395.06 53.8656 1392.6 48.761 1389.56 44.2487C1386.57 39.68 1382.99 35.7882 1378.81 32.5732C1374.69 29.3581 1370.01 26.9046 1364.77 25.2125C1359.52 23.5203 1353.77 22.6743 1347.51 22.6743C1337.24 22.6743 1327.91 25.3253 1319.5 30.6272C1311.1 35.9292 1304.42 43.7411 1299.45 54.063C1294.49 64.3849 1292.01 77.0475 1292.01 92.0509C1292.01 107.054 1294.52 119.717 1299.54 130.039C1304.56 140.361 1311.35 148.173 1319.93 153.475C1328.5 158.777 1338.14 161.428 1348.86 161.428C1358.79 161.428 1367.53 159.312 1375.09 155.082C1382.7 150.795 1388.63 144.76 1392.86 136.977C1397.14 129.136 1399.29 119.914 1399.29 109.31L1405.72 110.664H1353.6V92.0509H1419.59V110.664C1419.59 124.934 1416.55 137.343 1410.45 147.891C1404.42 158.438 1396.07 166.617 1385.41 172.426C1374.81 178.179 1362.62 181.056 1348.86 181.056C1333.52 181.056 1320.04 177.446 1308.42 170.227C1296.86 163.007 1287.83 152.741 1281.35 139.43C1274.92 126.119 1271.7 110.326 1271.7 92.0509C1271.7 78.3448 1273.53 66.0206 1277.2 55.0783C1280.92 44.0795 1286.17 34.7165 1292.94 26.9892C1299.71 19.2619 1307.71 13.3395 1316.97 9.22199C1326.22 5.10452 1336.4 3.04578 1347.51 3.04578C1356.65 3.04578 1365.16 4.42767 1373.06 7.19145C1381.01 9.89883 1388.09 13.7625 1394.29 18.7824C1400.56 23.746 1405.77 29.6966 1409.95 36.6342C1414.12 43.5155 1417 51.1582 1418.58 59.5624H1396.92Z" fill="white"/>
<path d="M1176.86 181.395C1166.03 181.395 1156.47 178.659 1148.18 173.188C1139.89 167.66 1133.4 159.877 1128.72 149.837C1124.04 139.74 1121.7 127.811 1121.7 114.048C1121.7 100.399 1124.04 88.5539 1128.72 78.5141C1133.4 68.4742 1139.91 60.7187 1148.26 55.2475C1156.61 49.7763 1166.25 47.0408 1177.2 47.0408C1185.66 47.0408 1192.34 48.4509 1197.25 51.271C1202.21 54.0348 1205.99 57.1934 1208.59 60.7469C1211.24 64.2439 1213.3 67.1205 1214.76 69.3766H1216.45V5.41476H1236.42V178.687H1217.13V158.72H1214.76C1213.3 161.089 1211.21 164.079 1208.5 167.688C1205.79 171.242 1201.93 174.429 1196.91 177.249C1191.89 180.013 1185.21 181.395 1176.86 181.395ZM1179.57 163.458C1187.57 163.458 1194.34 161.371 1199.87 157.197C1205.4 152.967 1209.6 147.129 1212.48 139.684C1215.35 132.182 1216.79 123.524 1216.79 113.71C1216.79 104.009 1215.38 95.5198 1212.56 88.2437C1209.74 80.9112 1205.57 75.2144 1200.04 71.1534C1194.51 67.0359 1187.69 64.9771 1179.57 64.9771C1171.1 64.9771 1164.05 67.1487 1158.41 71.4918C1152.83 75.7785 1148.63 81.6163 1145.81 89.0052C1143.04 96.3376 1141.66 104.573 1141.66 113.71C1141.66 122.96 1143.07 131.364 1145.89 138.922C1148.77 146.424 1153 152.403 1158.58 156.859C1164.22 161.258 1171.22 163.458 1179.57 163.458Z" fill="white"/>
<path d="M1008.39 100.512V178.687H988.42V48.7329H1007.71V69.0383H1009.4C1012.45 62.439 1017.07 57.137 1023.28 53.1324C1029.48 49.0713 1037.49 47.0408 1047.31 47.0408C1056.1 47.0408 1063.8 48.8457 1070.4 52.4555C1077 56.009 1082.13 61.4237 1085.8 68.6998C1089.47 75.9195 1091.3 85.0569 1091.3 96.1121V178.687H1071.33V97.4657C1071.33 87.2567 1068.68 79.3037 1063.38 73.607C1058.08 67.8538 1050.8 64.9772 1041.55 64.9772C1035.18 64.9772 1029.48 66.3591 1024.46 69.1228C1019.5 71.8866 1015.58 75.9195 1012.7 81.2215C1009.83 86.5234 1008.39 92.9534 1008.39 100.512Z" fill="white"/>
<path d="M899.054 181.395C887.323 181.395 877.029 178.603 868.173 173.019C859.374 167.435 852.493 159.623 847.53 149.583C842.623 139.543 840.169 127.811 840.169 114.387C840.169 100.85 842.623 89.0334 847.53 78.9371C852.493 68.8408 859.374 61.0007 868.173 55.4167C877.029 49.8328 887.323 47.0408 899.054 47.0408C910.786 47.0408 921.052 49.8328 929.851 55.4167C938.706 61.0007 945.588 68.8408 950.495 78.9371C955.458 89.0334 957.94 100.85 957.94 114.387C957.94 127.811 955.458 139.543 950.495 149.583C945.588 159.623 938.706 167.435 929.851 173.019C921.052 178.603 910.786 181.395 899.054 181.395ZM899.054 163.458C907.966 163.458 915.299 161.174 921.052 156.605C926.805 152.036 931.064 146.029 933.827 138.584C936.591 131.139 937.973 123.073 937.973 114.387C937.973 105.701 936.591 97.6068 933.827 90.105C931.064 82.6033 926.805 76.5399 921.052 71.9148C915.299 67.2897 907.966 64.9772 899.054 64.9772C890.143 64.9772 882.81 67.2897 877.057 71.9148C871.304 76.5399 867.045 82.6033 864.282 90.105C861.518 97.6068 860.136 105.701 860.136 114.387C860.136 123.073 861.518 131.139 864.282 138.584C867.045 146.029 871.304 152.036 877.057 156.605C882.81 161.174 890.143 163.458 899.054 163.458Z" fill="white"/>
<path d="M639.189 178.687V48.7329H658.48V69.0383H660.172C662.879 62.1006 667.25 56.714 673.286 52.8786C679.321 48.9867 686.569 47.0408 695.029 47.0408C703.603 47.0408 710.738 48.9867 716.434 52.8786C722.188 56.714 726.672 62.1006 729.887 69.0383H731.24C734.568 62.3262 739.56 56.996 746.216 53.0478C752.871 49.0431 760.852 47.0408 770.159 47.0408C781.778 47.0408 791.282 50.6788 798.671 57.9549C806.06 65.1746 809.754 76.4271 809.754 91.7126V178.687H789.787V91.7126C789.787 82.1239 787.165 75.2709 781.919 71.1534C776.674 67.0359 770.497 64.9772 763.391 64.9772C754.253 64.9772 747.174 67.7409 742.154 73.2685C737.135 78.7397 734.625 85.6774 734.625 94.0815V178.687H714.319V89.682C714.319 82.2931 711.922 76.3425 707.128 71.8302C702.333 67.2615 696.157 64.9772 688.599 64.9772C683.41 64.9772 678.559 66.3591 674.047 69.1228C669.591 71.8866 665.981 75.7221 663.217 80.6292C660.51 85.4799 659.156 91.0921 659.156 97.4657V178.687H639.189Z" fill="white"/>
<path d="M543.184 181.733C534.949 181.733 527.475 180.182 520.763 177.08C514.051 173.921 508.721 169.381 504.773 163.458C500.825 157.479 498.851 150.26 498.851 141.799C498.851 134.354 500.317 128.319 503.25 123.694C506.183 119.012 510.103 115.346 515.01 112.695C519.917 110.044 525.332 108.07 531.255 106.772C537.233 105.419 543.24 104.347 549.276 103.557C557.172 102.542 563.574 101.781 568.481 101.273C573.445 100.709 577.054 99.7783 579.311 98.481C581.623 97.1837 582.779 94.9276 582.779 91.7125V91.0357C582.779 82.688 580.495 76.2015 575.926 71.5764C571.414 66.9513 564.561 64.6387 555.367 64.6387C545.835 64.6387 538.361 66.7257 532.947 70.8996C527.532 75.0735 523.725 79.5293 521.525 84.2673L502.573 77.4988C505.957 69.6023 510.47 63.4543 516.11 59.0548C521.807 54.5989 528.011 51.4967 534.723 49.7482C541.492 47.9432 548.147 47.0408 554.69 47.0408C558.864 47.0408 563.659 47.5484 569.073 48.5637C574.544 49.5225 579.818 51.5249 584.895 54.5707C590.027 57.6165 594.286 62.2134 597.67 68.3614C601.054 74.5094 602.746 82.7444 602.746 93.0663V178.687H582.779V161.089H581.764C580.41 163.909 578.154 166.927 574.996 170.142C571.837 173.357 567.635 176.093 562.389 178.349C557.144 180.605 550.742 181.733 543.184 181.733ZM546.23 163.797C554.126 163.797 560.782 162.245 566.197 159.143C571.668 156.041 575.785 152.036 578.549 147.129C581.369 142.222 582.779 137.061 582.779 131.646V113.372C581.933 114.387 580.072 115.318 577.195 116.164C574.375 116.953 571.104 117.658 567.381 118.279C563.715 118.843 560.133 119.35 556.636 119.802C553.196 120.196 550.404 120.535 548.26 120.817C543.071 121.494 538.22 122.594 533.708 124.117C529.252 125.583 525.642 127.811 522.879 130.8C520.171 133.733 518.818 137.738 518.818 142.814C518.818 149.752 521.384 154.998 526.517 158.551C531.706 162.048 538.277 163.797 546.23 163.797Z" fill="white"/>
<path d="M448.404 178.687V48.7329H468.371V178.687H448.404ZM458.557 27.0738C454.665 27.0738 451.309 25.7483 448.488 23.0973C445.725 20.4464 444.343 17.2596 444.343 13.5369C444.343 9.81426 445.725 6.62744 448.488 3.97646C451.309 1.32549 454.665 0 458.557 0C462.448 0 465.776 1.32549 468.54 3.97646C471.36 6.62744 472.77 9.81426 472.77 13.5369C472.77 17.2596 471.36 20.4464 468.54 23.0973C465.776 25.7483 462.448 27.0738 458.557 27.0738Z" fill="white"/>
<path d="M333.34 178.687H279.869V5.41476H335.709C352.517 5.41476 366.9 8.8836 378.858 15.8213C390.815 22.7025 399.981 32.6014 406.355 45.5179C412.728 58.3779 415.915 73.7761 415.915 91.7125C415.915 109.762 412.7 125.301 406.27 138.33C399.84 151.303 390.477 161.287 378.181 168.281C365.885 175.218 350.938 178.687 333.34 178.687ZM300.851 160.074H331.986C346.313 160.074 358.186 157.31 367.605 151.783C377.025 146.255 384.047 138.387 388.672 128.178C393.297 117.969 395.61 105.813 395.61 91.7125C395.61 77.7244 393.325 65.6822 388.757 55.5859C384.188 45.4332 377.363 37.6495 368.282 32.2348C359.201 26.7636 347.892 24.028 334.355 24.028H300.851V160.074Z" fill="white"/>
</g>
<defs>
<clipPath id="clip0_8_8">
<rect width="2048" height="181.73" fill="white"/>
</clipPath>
</defs>
</svg>
